<?xml version="1.0" encoding="UTF-8"?>
<svg version="1.1" xmlns="http://www.w3.org/2000/svg" width="597" height="150">
<path d="M0 0 C0.33 0.66 0.66 1.32 1 2 C-10.77902089 20.7078567 -26.85351511 37.37732286 -45 50 C-45.57782227 50.40621582 -46.15564453 50.81243164 -46.75097656 51.23095703 C-53.89465159 56.22922885 -61.22717814 60.8263939 -68.8125 65.125 C-69.50061768 65.5156665 -70.18873535 65.90633301 -70.89770508 66.30883789 C-75.74473336 69 -75.74473336 69 -78 69 C-78 84.18 -78 99.36 -78 115 C-81.96 115 -85.92 115 -90 115 C-90 102.13 -90 89.26 -90 76 C-97.43687857 79.2849845 -97.43687857 79.2849845 -104.8684082 82.58203125 C-105.79484131 82.98808594 -106.72127441 83.39414063 -107.67578125 83.8125 C-108.62364502 84.23144531 -109.57150879 84.65039062 -110.5480957 85.08203125 C-113 86 -113 86 -116 86 C-116 95.57 -116 105.14 -116 115 C-119.96 115 -123.92 115 -128 115 C-128 107.08 -128 99.16 -128 91 C-132.80311203 92.64050117 -132.80311203 92.64050117 -137.6027832 94.29101562 C-140.52487323 95.27717698 -142.89614406 96 -146 96 C-146 102.27 -146 108.54 -146 115 C-154 115 -154 115 -156 113.625 C-157 112 -157 112 -157 110 C-157.43828125 110.33773437 -157.8765625 110.67546875 -158.328125 111.0234375 C-165.31632578 115.9379039 -173.30976742 117.90744891 -181.8125 116.5 C-185.23197646 115.60269058 -186.73976472 114.36008398 -189.0625 111.75 C-191.70448565 109.23118385 -192.86741239 109.00445311 -196.60546875 108.87890625 C-204.26144125 109.50150005 -210.62704106 111.42269356 -217.49609375 114.8828125 C-223.33862866 117.48962215 -228.84360263 117.33213261 -234.9765625 115.94140625 C-245.31285171 114.13866629 -255.90239554 115.51018295 -266.30688477 116.18652344 C-293.96423037 117.93893681 -293.96423037 117.93893681 -307 111 C-307 110.67 -307 110.34 -307 110 C-305.9162207 110.02094727 -304.83244141 110.04189453 -303.71582031 110.06347656 C-219.58030359 111.53736809 -132.3377311 91.28659204 -10.42675781 11.40820312 C-6.75633101 7.78550945 -3.3591858 3.91056731 0 0 Z M-160 100 C-166.6 101.65 -173.2 103.3 -180 105 C-176.24128151 108.75871849 -175.17575884 109.75423666 -170.09765625 110.171875 C-166.30552916 109.86116068 -164.06787001 108.2088664 -161 106 C-160.34 105.01 -159.68 104.02 -159 103 C-159.33 102.01 -159.66 101.02 -160 100 Z " fill="#FFFFFF" transform="translate(588,3)"/>
<path d="M0 0 C9.34806083 6.70058083 15.85887859 15.42632876 18.52734375 26.69140625 C20.62883818 41.40186724 19.82243113 56.5733959 10.75390625 68.9375 C3.50764326 77.45871795 -4.19079772 82.4448362 -15.375 83.875 C-26.97651756 84.54778956 -36.50492551 81.76127081 -45.5625 74.625 C-54.39266927 66.43646933 -58.39713972 54.70798187 -59.2109375 42.953125 C-59.66418204 28.37956978 -55.96968765 15.70776116 -46.09765625 4.859375 C-34.23427096 -5.65640042 -13.84978712 -8.16895234 0 0 Z M-37 9 C-38.79434289 11.72043763 -38.79434289 11.72043763 -40.1875 14.75 C-40.67605469 15.73484375 -41.16460937 16.7196875 -41.66796875 17.734375 C-44.63847955 25.01691761 -45.36178554 31.52468135 -45.3125 39.3125 C-45.30686035 40.24167236 -45.3012207 41.17084473 -45.29541016 42.12817383 C-45.0921423 53.6107952 -42.60060404 64.10819284 -34.40625 72.6640625 C-29.42534248 76.6816813 -23.15267986 78.36014392 -16.79296875 77.80859375 C-9.50501524 76.26181968 -4.07081641 72.14049075 0 66 C7.55035301 52.62359604 7.46034383 36.83399741 3.97265625 22.234375 C1.64255596 14.48608969 -2.11998437 8.44577281 -9 4 C-19.13837046 -0.9257973 -28.92909248 1.84793426 -37 9 Z " fill="#FFFFFF" transform="translate(247,36)"/>
<path d="M0 0 C4.8499238 3.08631514 8.06478002 7.42876462 9.52490234 13.00439453 C9.86681462 15.06425565 10.11151277 17.10933109 10.3125 19.1875 C10.44108398 20.23454102 10.44108398 20.23454102 10.57226562 21.30273438 C10.97739747 24.94199561 10.90109438 27.39562247 10 31 C-2.54 31 -15.08 31 -28 31 C-25.73085723 41.30336582 -25.73085723 41.30336582 -21 49 C-21 49.99 -21 50.98 -21 52 C-31.40778078 53.97532043 -31.40778078 53.97532043 -34.8046875 51.89453125 C-41.10142888 43.66183523 -42.0114929 31.92890728 -41 22 C-39.32809792 12.85185656 -36.13779416 6.07732188 -29 0 C-20.75076299 -5.44449643 -8.55368763 -4.35460461 0 0 Z M-24 9 C-27.14123174 14.63255346 -27.24214864 18.17933779 -28 25 C-19.42 25 -10.84 25 -2 25 C-2 17.27727189 -2.70455645 12.21362098 -7.1875 5.9375 C-10.21841735 3.84953472 -12.31366616 3.26163801 -16.0078125 3.51953125 C-19.64183354 4.39597162 -21.52249112 6.29202518 -24 9 Z " fill="#FFFFFF" transform="translate(373,55)"/>
<path d="M0 0 C1.38187241 2.59788196 2.47706993 5.03265447 3.53125 7.76171875 C4.00794128 8.93683769 4.00794128 8.93683769 4.4942627 10.13569641 C5.51077621 12.64737923 6.50646421 15.16664928 7.5 17.6875 C8.49642865 20.18917707 9.49729123 22.68888762 10.5057373 25.18574524 C11.13231487 26.73978905 11.75161527 28.29679348 12.36242676 29.85710144 C14.61170399 35.47496879 16.81905753 40.54603835 22 44 C23.65549531 44.38499891 25.3222433 44.72793135 27 45 C27 46.32 27 47.64 27 49 C19.88755978 50.51328515 13.47766588 49.88236761 7.25 45.875 C0.32129468 40.22844089 -2.6237968 31.58582974 -5.8125 23.5 C-6.42254883 21.98019531 -6.42254883 21.98019531 -7.04492188 20.4296875 C-8.03682137 17.95577346 -9.02165019 15.4792964 -10 13 C-25.66039821 18.9881336 -38.63619863 35.27239725 -46 50 C-48.97 50 -51.94 50 -55 50 C-52.76312982 35.47319942 -37.69645605 20.36995737 -26.25390625 11.67285156 C-6.30988596 -2.39051942 -6.30988596 -2.39051942 0 0 Z " fill="#FFFFFF" transform="translate(58,70)"/>
<path d="M0 0 C1.9375 3.1875 1.9375 3.1875 3 6 C1.35 7.32 -0.3 8.64 -2 10 C-2.598125 9.690625 -3.19625 9.38125 -3.8125 9.0625 C-8.14644363 6.95744167 -12.23599505 6.31685967 -17 7 C-19.65683189 8.49748707 -21.84652751 9.84652751 -24 12 C-24.1224331 13.50316769 -24.17776285 15.01188167 -24.20532227 16.51977539 C-24.22526749 17.48069595 -24.24521271 18.44161652 -24.26576233 19.43165588 C-24.29083107 20.99882607 -24.29083107 20.99882607 -24.31640625 22.59765625 C-24.33718735 23.66165146 -24.35796844 24.72564667 -24.37937927 25.82188416 C-24.44499254 29.2353544 -24.50381423 32.64890429 -24.5625 36.0625 C-24.60567403 38.37045109 -24.64928794 40.678394 -24.69335938 42.98632812 C-24.80068589 48.65746955 -24.90191976 54.32869143 -25 60 C-28.96 60 -32.92 60 -37 60 C-37.01458252 58.55230225 -37.02916504 57.10460449 -37.04418945 55.61303711 C-37.10230627 50.22493195 -37.17953901 44.83723884 -37.26245117 39.44946289 C-37.29563748 37.12075505 -37.32368888 34.79196798 -37.34643555 32.46313477 C-37.38009669 29.10919543 -37.43241999 25.75597794 -37.48828125 22.40234375 C-37.49467117 21.36665756 -37.5010611 20.33097137 -37.50764465 19.26390076 C-37.62459731 13.4707428 -38.02325864 9.04253226 -41 4 C-44.55892288 2.46954015 -44.55892288 2.46954015 -48 2 C-48 1.01 -48 0.02 -48 -1 C-45.10315842 -1.10829314 -42.21038981 -1.18743954 -39.3125 -1.25 C-38.49587891 -1.28351562 -37.67925781 -1.31703125 -36.83789062 -1.3515625 C-32.59264166 -1.42031147 -30.5678186 -1.37134905 -26.91796875 1.015625 C-26.28503906 1.67046875 -25.65210938 2.3253125 -25 3 C-24.29875 2.38125 -23.5975 1.7625 -22.875 1.125 C-15.63883302 -4.22347125 -7.7845542 -4.49108896 0 0 Z " fill="#FFFFFF" transform="translate(157,60)"/>
<path d="M0 0 C0.76892578 -0.02900391 1.53785156 -0.05800781 2.33007812 -0.08789062 C8.86945763 -0.15963065 14.18258393 1.45067518 18.9921875 6.03125 C24.21636672 14.72550447 24.47900706 24.40125991 24.1875 34.3125 C17.7525 36.2925 17.7525 36.2925 11.1875 38.3125 C11.1875 36.6625 11.1875 35.0125 11.1875 33.3125 C4.52465753 33.66190765 -0.82551042 34.31900521 -6.8125 37.3125 C-8.2975 37.8075 -8.2975 37.8075 -9.8125 38.3125 C-9.998125 39.26125 -10.18375 40.21 -10.375 41.1875 C-11.8125 44.3125 -11.8125 44.3125 -14.0546875 45.375 C-17.72120232 46.48026824 -20.97053351 47.3125 -24.8125 47.3125 C-25.11583321 42.91416847 -25.19356559 40.19587933 -23.4375 36.125 C-18.37513404 30.70103648 -11.26500938 27.51553679 -3.82592773 27.23852539 C-1.54960681 27.21424797 0.72370152 27.22519541 3 27.25 C4.18239258 27.25676758 4.18239258 27.25676758 5.38867188 27.26367188 C7.32164761 27.27538688 9.25458393 27.29332002 11.1875 27.3125 C10.09048397 17.84577971 10.09048397 17.84577971 6.1875 9.3125 C1.98268763 6.71037843 -2.00728666 6.77954253 -6.8125 7.3125 C-9.80631058 8.41890826 -11.23534859 9.26100958 -12.77734375 12.0703125 C-13.53121309 13.78649431 -14.17994242 15.54799727 -14.8125 17.3125 C-17.1225 17.3125 -19.4325 17.3125 -21.8125 17.3125 C-22.26183921 8.47549559 -22.26183921 8.47549559 -18.8125 4.3125 C-13.02965472 0.05145611 -6.91601498 0.08566493 0 0 Z " fill="#FFFFFF" transform="translate(417.8125,51.6875)"/>
<path d="M0 0 C0.7734375 -0.020625 1.546875 -0.04125 2.34375 -0.0625 C8.49287942 -0.10376932 14.5077747 0.68469246 19.1875 5.0625 C21.8114604 10.4647714 21.36731105 16.3844477 21.25 22.25 C19.93 22.25 18.61 22.25 17.25 22.25 C17.04246094 21.50234375 16.83492188 20.7546875 16.62109375 19.984375 C14.7138358 13.34232067 14.7138358 13.34232067 10.0625 8.5625 C4.67762169 6.2051713 -0.61984265 6.48635869 -6.0625 8.4375 C-11.44990948 12.07086918 -13.5499096 16.24197389 -15.2109375 22.375 C-16.96434022 31.72648115 -16.52929373 41.71583648 -11.68359375 50.09375 C-8.67073409 54.15066993 -5.35557216 55.62450394 -0.75 57.25 C-0.75 57.58 -0.75 57.91 -0.75 58.25 C-5.08493193 58.30866825 -9.41498302 58.29568519 -13.75 58.25 C-15.049375 58.25 -16.34875 58.25 -17.6875 58.25 C-23.10134739 56.4822131 -25.23265681 52.12496605 -27.7890625 47.28125 C-31.52456123 38.20433721 -31.08568938 25.55981479 -27.78515625 16.42578125 C-24.43960522 9.39381172 -19.81729115 4.58335797 -12.75 1.25 C-8.49197591 0.00932867 -4.40535602 0.02879318 0 0 Z " fill="#FFFFFF" transform="translate(302.75,51.75)"/>
<path d="M0 0 C2.31 0 4.62 0 7 0 C12.18621144 10.25118676 17.20085516 20.56185998 22 31 C26.21516743 22.80028221 30.16459148 14.55113159 33.77758789 6.06835938 C35.90478038 1.09521962 35.90478038 1.09521962 37 0 C39.33297433 -0.04092937 41.66705225 -0.04241723 44 0 C44.029729 1.63412842 44.029729 1.63412842 44.06005859 3.30126953 C44.13639058 7.36057833 44.22506461 11.41954153 44.31738281 15.47851562 C44.35555888 17.23202671 44.39043124 18.98561308 44.421875 20.73925781 C44.46777359 23.26654886 44.5257257 25.79332678 44.5859375 28.3203125 C44.59748871 29.09867462 44.60903992 29.87703674 44.62094116 30.6789856 C44.74015986 35.12089407 45.19858893 38.86080712 47 43 C49.00136244 44.42055068 49.00136244 44.42055068 51 45 C51 45.66 51 46.32 51 47 C43.26487524 47.2975048 43.26487524 47.2975048 40 45 C37.090774 40.63616099 36.88522597 36.63649264 36.68359375 31.48046875 C36.62643188 30.09831177 36.62643188 30.09831177 36.56811523 28.68823242 C36.52501221 27.53299072 36.48190918 26.37774902 36.4375 25.1875 C36.293125 21.495625 36.14875 17.80375 36 14 C29.07 28.85 29.07 28.85 22 44 C21.01 44 20.02 44 19 44 C14.05 33.44 9.1 22.88 4 12 C3.67 22.56 3.34 33.12 3 44 C2.01 44 1.02 44 0 44 C0 29.48 0 14.96 0 0 Z " fill="#FFFFFF" transform="translate(336,0)"/>
<path d="M0 0 C-8.57294547 19.34621758 -36.58642877 36.269565 -54.55859375 46.44921875 C-58.11973028 47.25261115 -59.7437905 45.97362018 -62.8125 44.125 C-64.27623047 43.26261719 -64.27623047 43.26261719 -65.76953125 42.3828125 C-66.50558594 41.92648438 -67.24164062 41.47015625 -68 41 C-66.7224142 38.15000091 -65.63004393 35.7650517 -63 34 C-60.2421875 34.3828125 -60.2421875 34.3828125 -56.875 35.125 C-49.35133183 35.92522331 -45.60481314 33.39155537 -39.8125 28.75 C-36.03888182 25.66067791 -32.42000924 22.47806395 -29 19 C-30.28777344 18.73445313 -31.57554687 18.46890625 -32.90234375 18.1953125 C-37.91263861 17.08191364 -42.71330785 15.54328174 -47.5625 13.875 C-48.38041016 13.59785156 -49.19832031 13.32070312 -50.04101562 13.03515625 C-52.02876568 12.36094863 -54.01459349 11.68107796 -56 11 C-56 8 -56 8 -53.5 5.25 C-52.09375 3.890625 -52.09375 3.890625 -50 3 C-42.49209094 3.33901351 -35.53873142 5.81427549 -28.42578125 8.09179688 C-27.07806641 8.50075195 -27.07806641 8.50075195 -25.703125 8.91796875 C-24.89520508 9.17344482 -24.08728516 9.4289209 -23.25488281 9.69213867 C-19.56513345 10.19590372 -17.61261013 8.45972303 -14.74609375 6.30859375 C-13.20418565 5.05889158 -11.66251981 3.80889044 -10.12109375 2.55859375 C-6.75037703 0.08176876 -4.06196499 -0.10978284 0 0 Z " fill="#FFFFFF" transform="translate(586,2)"/>
<path d="M0 0 C3.08301416 -0.11644156 6.16546123 -0.18732432 9.25 -0.25 C10.12269531 -0.28351562 10.99539062 -0.31703125 11.89453125 -0.3515625 C18.35069754 -0.45012992 18.35069754 -0.45012992 21.546875 1.765625 C23.99180462 5.52503291 24.12404885 8.89948304 24.11352539 13.31933594 C24.11344986 14.38013367 24.11337433 15.4409314 24.11329651 16.53387451 C24.10813522 17.67253967 24.10297394 18.81120483 24.09765625 19.984375 C24.0962413 21.15510559 24.09482635 22.32583618 24.09336853 23.53204346 C24.0877709 27.27138829 24.0752188 31.01067326 24.0625 34.75 C24.0574847 37.28515539 24.05292184 39.82031171 24.04882812 42.35546875 C24.03780223 48.57033557 24.02053919 54.78515763 24 61 C19.71 61 15.42 61 11 61 C10.9906543 59.41541992 10.98130859 57.83083984 10.97167969 56.19824219 C10.93183247 50.32376914 10.86608743 44.4498227 10.79248047 38.57568359 C10.76424044 36.03245809 10.7430411 33.48914433 10.72900391 30.94580078 C10.70761723 27.29153147 10.66098609 23.63832686 10.609375 19.984375 C10.60814636 18.84570984 10.60691772 17.70704468 10.60565186 16.53387451 C10.58593323 15.47307678 10.5662146 14.41227905 10.54589844 13.31933594 C10.53701599 12.38667908 10.52813354 11.45402222 10.51898193 10.49310303 C9.84076111 7.23504283 8.58187462 6.04075404 6 4 C2.85518209 3.19684346 2.85518209 3.19684346 0 3 C0 2.01 0 1.02 0 0 Z " fill="#FFFFFF" transform="translate(80,59)"/>
<path d="M0 0 C1.2065625 0.0309375 1.2065625 0.0309375 2.4375 0.0625 C4.29334011 4.58136436 6.14463411 9.1020535 7.99169922 13.62451172 C8.62097884 15.16343664 9.25150811 16.70185118 9.88330078 18.23974609 C10.79005984 20.44756917 11.69234123 22.65717556 12.59375 24.8671875 C12.87810913 25.55682587 13.16246826 26.24646423 13.45544434 26.95700073 C15.4375 31.83475659 15.4375 31.83475659 15.4375 34.0625 C9.4975 36.5375 9.4975 36.5375 3.4375 39.0625 C0.58856978 33.46638708 -2.03309784 27.80951896 -4.5625 22.0625 C-4.96976318 23.07038574 -5.37702637 24.07827148 -5.79663086 25.11669922 C-7.33555491 28.90894676 -8.90219876 32.68924297 -10.47680664 36.46679688 C-11.15025464 38.09297053 -11.81647865 39.72215781 -12.47485352 41.35449219 C-16.61659009 51.60662675 -20.59472068 59.25297983 -28.5625 67.0625 C-29.2225 68.0525 -29.8825 69.0425 -30.5625 70.0625 C-31.2225 69.7325 -31.8825 69.4025 -32.5625 69.0625 C-32.1814209 68.17506104 -31.8003418 67.28762207 -31.40771484 66.37329102 C-29.92109693 62.91073404 -28.43526426 59.4478406 -26.94976807 55.98480225 C-26.27616117 54.4144879 -25.60245548 52.84421592 -24.9286499 51.27398682 C-21.09284788 42.33343192 -17.26985811 33.38777195 -13.484375 24.42578125 C-13.16203888 23.66320511 -12.83970276 22.90062897 -12.50759888 22.11494446 C-10.95811267 18.44847845 -9.41136126 14.78089499 -7.86865234 11.11157227 C-7.31096432 9.79048853 -6.75318929 8.46944153 -6.1953125 7.1484375 C-5.70949707 5.9939209 -5.22368164 4.8394043 -4.72314453 3.64990234 C-3.12002459 0.07609816 -3.12002459 0.07609816 0 0 Z " fill="#FFFFFF" transform="translate(40.5625,30.9375)"/>
<path d="M0 0 C2 2 2 2 2 5 C0.5437455 5.67119549 -0.91507867 6.33681807 -2.375 7 C-3.18710937 7.37125 -3.99921875 7.7425 -4.8359375 8.125 C-7 9 -7 9 -9 9 C-10.35432675 7.68799596 -11.68733482 6.35368596 -13 5 C-16.46434608 3.26782696 -20.21238136 3.51701507 -24 4 C-26.71333735 5.23333516 -28.88116453 6.88116453 -31 9 C-31.23287008 10.68183948 -31.41264166 12.3712416 -31.5625 14.0625 C-31.64628906 14.98160156 -31.73007812 15.90070313 -31.81640625 16.84765625 C-31.90728516 17.91306641 -31.90728516 17.91306641 -32 19 C-33.43671568 19.64757625 -34.87440416 20.29299453 -36.3125 20.9375 C-37.11300781 21.29714844 -37.91351563 21.65679687 -38.73828125 22.02734375 C-41 23 -41 23 -44 24 C-44.04898437 22.98679687 -44.09796875 21.97359375 -44.1484375 20.9296875 C-44.22352564 19.57810089 -44.29907081 18.22653962 -44.375 16.875 C-44.4059375 16.20984375 -44.436875 15.5446875 -44.46875 14.859375 C-44.71838408 10.61559556 -45.14449774 6.85016719 -47 3 C-49.14364195 1.85585408 -49.14364195 1.85585408 -51.625 1.625 C-52.44226563 1.49351563 -53.25953125 1.36203125 -54.1015625 1.2265625 C-54.72804688 1.15179688 -55.35453125 1.07703125 -56 1 C-56 -0.32 -56 -1.64 -56 -3 C-53.29105233 -3.08144943 -50.58458737 -3.14070614 -47.875 -3.1875 C-47.11445313 -3.21263672 -46.35390625 -3.23777344 -45.5703125 -3.26367188 C-40.55778692 -3.32848902 -37.43558228 -2.56832348 -33 0 C-30.82247435 0.17260089 -30.82247435 0.17260089 -28.625 -1.4375 C-20.01532337 -6.56230752 -8.12766765 -5.31424423 0 0 Z " fill="#FFFFFF" transform="translate(504,56)"/>
<path d="M0 0 C4.6051411 2.18138263 6.7713349 4.47935545 9 9 C9.79241055 15.10370289 9.91091339 20.96796245 7.375 26.625 C3.39189398 30.60810602 0.31110835 33.20670366 -5.4375 33.5 C-10.30456984 33.25377387 -13.1208478 31.94815567 -17 29 C-20.42082169 24.21084963 -21.13413206 18.785563 -21 13 C-20.12460049 8.11306096 -18.10044851 3.8764281 -14.00390625 0.84765625 C-9.5173247 -1.05017649 -4.73232924 -0.70108581 0 0 Z M-9.625 5.375 C-12.97698065 9.07982072 -13.17724402 10.89540835 -13.25 15.8125 C-13.27578125 16.85019531 -13.3015625 17.88789063 -13.328125 18.95703125 C-12.85448969 23.34943492 -11.07878057 25.92121943 -8 29 C-5.58582128 29.58402133 -5.58582128 29.58402133 -3 29 C1.7970344 23.93646369 2.28469906 20.53219759 2.22265625 13.76953125 C1.93966556 10.24952425 1.00599208 7.89754411 -1 5 C-5.0087914 2.3274724 -6.01199875 2.1060941 -9.625 5.375 Z " fill="#FFFFFF" transform="translate(466,12)"/>
<path d="M0 0 C1.21429688 -0.02835938 2.42859375 -0.05671875 3.6796875 -0.0859375 C7.70772557 0.45296102 9.30926175 1.49692068 12.125 4.375 C13.1842918 7.55287541 13.23958939 9.80088943 13.22265625 13.13671875 C13.21943359 14.25498047 13.21621094 15.37324219 13.21289062 16.52539062 C13.20451172 17.69263672 13.19613281 18.85988281 13.1875 20.0625 C13.18298828 21.24134766 13.17847656 22.42019531 13.17382812 23.63476562 C13.16203273 26.54822789 13.1455727 29.46158863 13.125 32.375 C11.475 32.375 9.825 32.375 8.125 32.375 C8.125 31.715 8.125 31.055 8.125 30.375 C7.3 30.87 6.475 31.365 5.625 31.875 C0.54446486 34.0523722 -3.41433807 34.23088241 -8.75 32.375 C-11.82840557 29.47767711 -12.54157599 26.53060174 -12.875 22.375 C-12.23218608 18.75917172 -11.41538485 17.76296861 -8.4375 15.625 C-3.6268781 13.93706249 1.05826855 13.63645056 6.125 13.375 C5.465 10.405 4.805 7.435 4.125 4.375 C1.33561788 3.95609782 1.33561788 3.95609782 -1.875 4.375 C-3.58180947 6.00053283 -5.25160195 7.66615995 -6.875 9.375 C-8.195 9.375 -9.515 9.375 -10.875 9.375 C-10.5625 6 -10.5625 6 -9.875 2.375 C-6.24295662 -0.04636226 -4.32356165 0.04570361 0 0 Z M-4.875 21.375 C-5.17073841 24.18451486 -5.25743085 25.79128976 -3.6875 28.1875 C-1.22592224 29.80025784 0.23565736 29.8084014 3.125 29.375 C4.8588246 28.19372096 4.8588246 28.19372096 6.125 26.375 C6.48646457 24.09169899 6.48646457 24.09169899 6.3125 21.6875 C6.28542969 20.87925781 6.25835937 20.07101563 6.23046875 19.23828125 C6.19566406 18.62339844 6.16085937 18.00851563 6.125 17.375 C1.58001357 16.98542973 -1.60192206 18.10192206 -4.875 21.375 Z " fill="#FFFFFF" transform="translate(400.875,11.625)"/>
<path d="M0 0 C2.4140625 1.26953125 2.4140625 1.26953125 4 3 C4.52799676 5.76142303 4.18598981 8.16365545 4 11 C3.34 11 2.68 11 2 11 C1.34 9.02 0.68 7.04 0 5 C-5.21708153 4.0270073 -5.21708153 4.0270073 -10.375 4.625 C-13.21105934 7.02474252 -13.90174118 10.11184238 -14.30078125 13.71875 C-14.43781226 20.88766007 -14.43781226 20.88766007 -11 27 C-7.89951072 28.55024464 -5.42105782 28.28992015 -2 28 C0.7905817 26.10183458 0.7905817 26.10183458 3 24 C3.66 24 4.32 24 5 24 C4.45712148 27.80014965 2.88535357 29.53896313 0 32 C-4.61390124 33.53796708 -9.38349192 33.92229404 -14.0390625 32.28125 C-17.9863957 30.19840184 -20.38009271 28.13976307 -22 24 C-23.53229916 17.17648029 -23.29576267 11.24719193 -20 5 C-15.00385243 -1.61651976 -7.79654586 -1.12721145 0 0 Z " fill="#FFFFFF" transform="translate(501,12)"/>
<path d="M0 0 C2 1.25 2 1.25 3 3 C2.5625 5.109375 2.5625 5.109375 2 7 C1.07767578 6.85691406 1.07767578 6.85691406 0.13671875 6.7109375 C-1.07564453 6.54464844 -1.07564453 6.54464844 -2.3125 6.375 C-3.11300781 6.25898438 -3.91351563 6.14296875 -4.73828125 6.0234375 C-7.28723215 5.78466593 -7.28723215 5.78466593 -10 8 C-10.51012565 10.61196291 -10.51012565 10.61196291 -10.51171875 13.6640625 C-10.54716797 14.78554688 -10.58261719 15.90703125 -10.61914062 17.0625 C-10.65297852 18.8259375 -10.65297852 18.8259375 -10.6875 20.625 C-10.72166016 21.80835937 -10.75582031 22.99171875 -10.79101562 24.2109375 C-10.87370575 27.1405306 -10.94278714 30.0698164 -11 33 C-13.31 33 -15.62 33 -18 33 C-18.33 23.76 -18.66 14.52 -19 5 C-20.32 4.34 -21.64 3.68 -23 3 C-23 2.34 -23 1.68 -23 1 C-21.37509046 0.97301811 -19.75005367 0.95361243 -18.125 0.9375 C-17.22007812 0.92589844 -16.31515625 0.91429687 -15.3828125 0.90234375 C-13 1 -13 1 -11 2 C-10.443125 1.690625 -9.88625 1.38125 -9.3125 1.0625 C-6.06850478 -0.42798429 -3.5255558 -0.32050507 0 0 Z " fill="#FFFFFF" transform="translate(441,12)"/>
<path d="M0 0 C0.87527344 -0.01417969 1.75054687 -0.02835937 2.65234375 -0.04296875 C5.0625 0.1875 5.0625 0.1875 8.0625 2.1875 C8.0625 3.5075 8.0625 4.8275 8.0625 6.1875 C7.546875 6.0225 7.03125 5.8575 6.5 5.6875 C2.31888489 4.82983536 -1.40744639 4.52055356 -5.375 6.25 C-7.26159061 8.23169417 -7.26159061 8.23169417 -7.3125 11.6875 C-7.19890863 15.29686483 -7.19890863 15.29686483 -4.9375 18.1875 C-2.74295319 18.76743699 -2.74295319 18.76743699 -0.3125 18.875 C0.50476563 18.94074219 1.32203125 19.00648438 2.1640625 19.07421875 C2.79054688 19.11160156 3.41703125 19.14898437 4.0625 19.1875 C4.0625 17.8675 4.0625 16.5475 4.0625 15.1875 C2.7425 15.1875 1.4225 15.1875 0.0625 15.1875 C0.0625 13.8675 0.0625 12.5475 0.0625 11.1875 C3.0325 11.1875 6.0025 11.1875 9.0625 11.1875 C9.0625 14.8175 9.0625 18.4475 9.0625 22.1875 C3.53023854 24.1468426 -0.16982455 24.48987833 -5.9375 23.1875 C-8.91630495 21.37431438 -10.50253397 19.89926259 -12.3125 16.9375 C-13.175518 13.14022078 -13.12665237 9.91300901 -11.9375 6.1875 C-8.14707559 1.61955263 -5.82838586 0.04279285 0 0 Z " fill="#FFFFFF" transform="translate(430.9375,118.8125)"/>
<path d="M0 0 C1.91503906 0.16235352 1.91503906 0.16235352 4 1 C5.28027344 2.91772461 5.28027344 2.91772461 6.359375 5.40234375 C6.75253906 6.29244141 7.14570313 7.18253906 7.55078125 8.09960938 C7.94652344 9.03611328 8.34226562 9.97261719 8.75 10.9375 C9.16121094 11.87013672 9.57242187 12.80277344 9.99609375 13.76367188 C13 20.66467245 13 20.66467245 13 23 C10.625 22.75 10.625 22.75 8 22 C7.71125 21.34 7.4225 20.68 7.125 20 C6.18442983 17.77707925 6.18442983 17.77707925 3.8359375 17.390625 C2.61777344 17.32101563 2.61777344 17.32101563 1.375 17.25 C0.55773437 17.19328125 -0.25953125 17.1365625 -1.1015625 17.078125 C-2.04128906 17.03945312 -2.04128906 17.03945312 -3 17 C-3.66 18.98 -4.32 20.96 -5 23 C-6.32 23 -7.64 23 -9 23 C-8.29385121 18.09618898 -6.40371082 13.783737 -4.5 9.25 C-4.17902344 8.47011719 -3.85804688 7.69023438 -3.52734375 6.88671875 C-1.13778832 1.13778832 -1.13778832 1.13778832 0 0 Z M1 7 C0.34 8.98 -0.32 10.96 -1 13 C0.65 13 2.3 13 4 13 C3.34 11.02 2.68 9.04 2 7 C1.67 7 1.34 7 1 7 Z " fill="#FFFFFF" transform="translate(277,119)"/>
<path d="M0 0 C10 0 10 0 14 3 C14.49609375 5.15625 14.49609375 5.15625 14.4375 7.5 C14.43621094 8.2734375 14.43492187 9.046875 14.43359375 9.84375 C13.90055288 12.49454785 13.14091929 13.38430623 11 15 C7.8125 15.6875 7.8125 15.6875 5 16 C4.67 18.31 4.34 20.62 4 23 C2.68 23 1.36 23 0 23 C0 15.41 0 7.82 0 0 Z M4 3 C4 5.97 4 8.94 4 12 C7.29075996 11.62095792 7.29075996 11.62095792 10 10 C10.04063832 8.33382885 10.042721 6.66611905 10 5 C8.02 4.34 6.04 3.68 4 3 Z " fill="#FFFFFF" transform="translate(503,127)"/>
<path d="M0 0 C2.4375 1.5 2.4375 1.5 4 4 C4.64430945 7.02096035 4.454447 8.81887097 4 12 C1.875 14.125 1.875 14.125 -1 15 C-4.40703636 14.38673345 -6.34219985 13.61394681 -8.875 11.25 C-10.36051136 8.27897729 -10.41876921 6.2803588 -10 3 C-7.71982624 -1.02383605 -4.21281932 -0.51736378 0 0 Z " fill="#FFFFFF" transform="translate(99,42)"/>
<path d="M0 0 C2.61188645 0.57721248 3.51061164 1.35744724 5.12109375 3.46875 C6.26159908 7.57456917 6.61940048 9.55186561 4.55859375 13.34375 C1.58118592 15.93943888 0.0614953 16.46875 -3.87890625 16.46875 C-9.49067096 14.24522059 -9.49067096 14.24522059 -10.87890625 11.46875 C-11.28082473 7.85148364 -11.07999477 5.87092704 -9.44140625 2.59375 C-6.16424135 -0.12389895 -4.13706442 -0.055812 0 0 Z M-5.69140625 4.59375 C-7.16290371 6.48228208 -7.16290371 6.48228208 -6.56640625 9.15625 C-6.33953125 9.919375 -6.11265625 10.6825 -5.87890625 11.46875 C-3.53356674 12.23831136 -3.53356674 12.23831136 -0.87890625 12.46875 C0.95657365 11.13496425 0.95657365 11.13496425 2.12109375 9.46875 C1.41769809 6.95909386 1.41769809 6.95909386 0.12109375 4.46875 C-2.40660734 3.16413008 -3.26243653 3.08611362 -5.69140625 4.59375 Z " fill="#FFFFFF" transform="translate(471.87890625,126.53125)"/>
<path d="M0 0 C2.80398661 0.51243287 4.09782877 1.11005767 5.90234375 3.34765625 C7.11133811 7.42801221 7.39034134 9.41232754 5.40234375 13.22265625 C2.15527386 15.98266565 0.13926413 16.34765625 -4.09765625 16.34765625 C-7.04521357 15.00203226 -8.64042897 14.26211081 -10.09765625 11.34765625 C-10.50381854 7.6921956 -10.31199878 5.75847943 -8.59765625 2.47265625 C-5.54112405 -0.12539612 -3.90235552 -0.28341129 0 0 Z M-4.91015625 4.47265625 C-6.38165371 6.36118833 -6.38165371 6.36118833 -5.78515625 9.03515625 C-5.55828125 9.79828125 -5.33140625 10.56140625 -5.09765625 11.34765625 C-2.75231674 12.11721761 -2.75231674 12.11721761 -0.09765625 12.34765625 C1.73782365 11.0138705 1.73782365 11.0138705 2.90234375 9.34765625 C2.19894809 6.83800011 2.19894809 6.83800011 0.90234375 4.34765625 C-1.62535734 3.04303633 -2.48118653 2.96501987 -4.91015625 4.47265625 Z " fill="#FFFFFF" transform="translate(374.09765625,126.65234375)"/>
<path d="M0 0 C1.20272819 2.40545638 1.10071472 3.94996953 1.0625 6.625 C1.05347656 7.44226563 1.04445313 8.25953125 1.03515625 9.1015625 C1.02355469 9.72804687 1.01195312 10.35453125 1 11 C1.66 11 2.32 11 3 11 C3 11.99 3 12.98 3 14 C-6.12751678 16.14765101 -6.12751678 16.14765101 -9.9375 13.8125 C-11 12 -11 12 -10.9375 9.4375 C-10 7 -10 7 -8.125 5.6875 C-6 5 -6 5 -3 5 C-3.33 4.34 -3.66 3.68 -4 3 C-6.16874252 3.50603992 -7.99967627 3.99983813 -10 5 C-10 3.35 -10 1.7 -10 0 C-6.24527715 -2.59942351 -4.03404839 -1.7929104 0 0 Z M-7 9 C-7 9.66 -7 10.32 -7 11 C-5.68 11 -4.36 11 -3 11 C-3 10.01 -3 9.02 -3 8 C-5.0745356 7.8509288 -5.0745356 7.8509288 -7 9 Z " fill="#FFFFFF" transform="translate(332,128)"/>
<path d="M0 0 C1.32 0 2.64 0 4 0 C4.33 3.96 4.66 7.92 5 12 C6.32 11.34 7.64 10.68 9 10 C9.70176588 7.58320293 9.70176588 7.58320293 9.75 4.875 C9.80671875 3.96492187 9.8634375 3.05484375 9.921875 2.1171875 C9.94765625 1.41851562 9.9734375 0.71984375 10 0 C11.32 0 12.64 0 14 0 C14 4.95 14 9.9 14 15 C4.375 16.25 4.375 16.25 1 14 C-0.04976964 10.85069107 -0.10131595 8.61185544 -0.0625 5.3125 C-0.05347656 4.31863281 -0.04445313 3.32476562 -0.03515625 2.30078125 C-0.02355469 1.54152344 -0.01195312 0.78226562 0 0 Z " fill="#FFFFFF" transform="translate(483,127)"/>
<path d="M0 0 C1.04976964 3.14930893 1.10131595 5.38814456 1.0625 8.6875 C1.05347656 9.68136719 1.04445313 10.67523438 1.03515625 11.69921875 C1.02355469 12.45847656 1.01195312 13.21773437 1 14 C-0.32 14 -1.64 14 -3 14 C-3.33 10.04 -3.66 6.08 -4 2 C-5.98 2.99 -5.98 2.99 -8 4 C-8.70176588 6.41679707 -8.70176588 6.41679707 -8.75 9.125 C-8.80671875 10.03507813 -8.8634375 10.94515625 -8.921875 11.8828125 C-8.94765625 12.58148438 -8.9734375 13.28015625 -9 14 C-10.32 14 -11.64 14 -13 14 C-13 9.05 -13 4.1 -13 -1 C-4.61538462 -2.1978022 -4.61538462 -2.1978022 0 0 Z " fill="#FFFFFF" transform="translate(399,128)"/>
<path d="M0 0 C1.65 0 3.3 0 5 0 C5.66 1.65 6.32 3.3 7 5 C7.5775 4.175 8.155 3.35 8.75 2.5 C9.4925 1.675 10.235 0.85 11 0 C12.32 0 13.64 0 15 0 C13.25192871 5.46737191 11.34205919 10.75824848 9 16 C6 15 6 15 4.39453125 12.12890625 C3.87246094 10.95199219 3.35039062 9.77507812 2.8125 8.5625 C2.28269531 7.38816406 1.75289063 6.21382812 1.20703125 5.00390625 C0 2 0 2 0 0 Z " fill="#FFFFFF" transform="translate(292,127)"/>
<path d="M0 0 C0.66 0 1.32 0 2 0 C2 0.99 2 1.98 2 3 C3.65 3 5.3 3 7 3 C7 3.99 7 4.98 7 6 C5.35 6 3.7 6 2 6 C2.33 8.64 2.66 11.28 3 14 C4.65 14 6.3 14 8 14 C8 15.32 8 16.64 8 18 C5.25 18.75 5.25 18.75 2 19 C-0.375 17.625 -0.375 17.625 -2 15 C-2.32285001 11.96937574 -2.23345004 9.03485057 -2 6 C-2.66 6 -3.32 6 -4 6 C-2.84826645 3.53199953 -1.95216435 1.95216435 0 0 Z " fill="#FFFFFF" transform="translate(342,124)"/>
<path d="M0 0 C-0.33 1.32 -0.66 2.64 -1 4 C-2.32 3.67 -3.64 3.34 -5 3 C-6.93395001 5.90092502 -7.30131941 6.89674737 -7.625 10.1875 C-7.74875 11.445625 -7.8725 12.70375 -8 14 C-8.99 14 -9.98 14 -11 14 C-11 9.05 -11 4.1 -11 -1 C-4.25 -2.125 -4.25 -2.125 0 0 Z " fill="#FFFFFF" transform="translate(458,128)"/>
<path d="M0 0 C1.32 0 2.64 0 4 0 C4 4.95 4 9.9 4 15 C2.68 15 1.36 15 0 15 C0 10.05 0 5.1 0 0 Z " fill="#FFFFFF" transform="translate(354,127)"/>
<path d="M0 0 C1.32 0 2.64 0 4 0 C4 4.95 4 9.9 4 15 C2.68 15 1.36 15 0 15 C0 10.05 0 5.1 0 0 Z " fill="#FFFFFF" transform="translate(312,127)"/>
<path d="M0 0 C1.32 0 2.64 0 4 0 C4 1.32 4 2.64 4 4 C2.68 4 1.36 4 0 4 C0 2.68 0 1.36 0 0 Z " fill="#FFFFFF" transform="translate(312,121)"/>
<path d="M0 0 C1.32 0 2.64 0 4 0 C4 1.32 4 2.64 4 4 C2.68 3.67 1.36 3.34 0 3 C0 2.01 0 1.02 0 0 Z " fill="#FFFFFF" transform="translate(354,121)"/>
</svg>
